<svg xmlns="http://www.w3.org/2000/svg" xml:space="preserve" id="Layer_1" x="0" y="0" version="1.1" viewBox="0 0 400 225"><defs id="defs67"><path id="rect1367" d="M61.115 49.216h172.887v150.239H61.115z"/><path id="rect1361" d="M69.433 35.093h160.955v165.918H69.433z"/><path id="rect1355" d="M83.002 33.6h216.35v151.989H83.002z"/></defs><style id="style2" type="text/css">.st5{fill:#757575}</style><path id="rect290" d="M0 0h400v225H0z" class="cls-6" style="fill:none"/><g id="text1365" aria-label="T" style="font-weight:700;font-size:96px;line-height:1.25;font-family:FreeSerif;-inkscape-font-specification:&quot;FreeSerif Bold&quot;;white-space:pre;shape-inside:url(#rect1367);stroke-width:.407235" transform="translate(-26.098 -146.728)scale(2.45558)"><path id="path1427" d="M84.347 126.783V76.19q-8.928.288-13.152 4.032-4.128 3.648-5.376 12.192h-2.784l.288-19.296h57.6l.192 19.296h-2.784q-1.248-8.544-5.472-12.192-4.128-3.744-12.96-4.032v50.592q0 5.472 1.536 6.912 1.632 1.44 7.872 1.92v2.4H75.035v-2.4q6.144-.48 7.68-1.92 1.632-1.536 1.632-6.912" style="stroke-width:.407235"/></g><g id="g1438" transform="translate(-50.899 11.537)"><g id="g1166"><path id="polygon46-1-0" d="M327.114 97.208c-3.61.299-6.548 2.71-9.127 5.045-.502.407-.912 1.013-1.444 1.33-1.207.205-1.862 1.374-2.778 2.069-15.93 14.783-30.312 29.45-46.241 44.233.429.34-.853 1.298-.63 1.71-1.411 3.711-2.38 6.781-3.742 10.504-.17.83-.624 1.6-.88 2.415l-4.781 12.278c9.73-1.988 19.461-3.975 29.183-6.004 4.358-2.584 1.062-.649 4.684-3.323l44.285-41.01c.554-.677 1.442-1.237 2.108-1.886 2.354-2.107 4.67-4.514 5.694-7.568 1.03-3.545-.327-7.28-2.206-10.29-2.458-3.908-6.036-7.264-10.406-8.888-1.19-.414-2.455-.673-3.72-.615" class="st5" style="fill:#fff"/><g id="g1057" transform="translate(-127.988 -12.584)"><path id="polygon46-1" d="m288.4 107.8-7-8.6-44.5 41.3 6 9z" class="st5" style="fill:#757575" transform="translate(162.07 22.485)"/><path id="polygon48-2" d="m295.5 116.3-7.1-8.5-45.5 41.7 8 8.1z" style="fill:#565656" transform="translate(162.07 22.485)"/><path id="path50-0" d="M397.27 178.285c1.2 1.4 2.3 2.9 3.2 4.4l12.504-2.6s-.203-3.5-5.603-9.7c-5.6-6.6-8.397-7.397-8.397-7.397l-4.703 12.197c1.1 1 2.1 2 3 3.1" style="fill:#e29563"/><path id="path52-9" d="M400.47 182.685c-.9-1.6-2-3-3.2-4.4-.9-1.1-1.9-2.1-2.9-3.1l-3.7 9.5z" style="fill:#494949"/><path id="path56-3" d="M466.57 128.385c.5-5.4-6.6-13.4-12-13.9-3.3-.3-8.5 5.4-8.5 5.4l14 16.5s6.2-4.7 6.5-8" style="fill:#d66f6e"/></g></g></g></svg>